<?xml version="1.0" standalone="no"?><!DOCTYPE svg PUBLIC "-//W3C//DTD SVG 1.1//EN" "http://www.w3.org/Graphics/SVG/1.1/DTD/svg11.dtd"><svg t="1642390559055" class="icon" viewBox="0 0 1024 1024" version="1.1" xmlns="http://www.w3.org/2000/svg" p-id="2621" xmlns:xlink="http://www.w3.org/1999/xlink" width="200" height="200"><defs><style type="text/css"></style></defs><path d="M810.6 408.7c-25.8-5.8-52.3-6-78-0.6 1.4-0.9 2.7-1.7 3.7-2.4 5.8-4.1 11.5-8.2 17.3-12.3 12-8.5 24-17.1 36-25.6 4.3-3.1 0.2-10.3-4.2-7.2-12.7 9.1-25.4 18.1-38.2 27.2 11.1-11.5 23.4-21.8 36.7-30.8 4.4-3 0.2-10.2-4.2-7.2-20.8 14.1-39.1 31.1-54.7 50.7 3.1-17.8 6.1-35.5 9.2-53.3 0.9-5.2-7.1-7.5-8-2.2-1.9 11-3.8 21.9-5.7 32.9 1.2-14.8 2.4-29.5 3.6-44.3 0.4-5.3-7.9-5.3-8.3 0-1.9 23.2-3.7 46.4-5.6 69.6-0.2 3 2.3 4.3 4.6 3.9l-4.8 4.5c-38.8 27.1-74.2 62.5-98.2 102.9-14.2-15-30.1-28.4-48-39.4-9.9-6.1-20.4-11.7-31.4-16.1 15.5-4.2 30.4-11 44.1-20.4 26.9-13.9 50.5-33.4 66.2-58.3 27.9-44.2 25.6-103.2 2.1-149.6-0.3-1.3-0.6-2.7-0.9-4 0-0.4-0.2-0.9-0.4-1.4-0.2-0.5-0.4-0.9-0.7-1.2-20.6-32.9-50.8-68.1-91-75-20.1-3.4-41-5.5-61.5-6.2-20-0.7-40.8 0.5-59.5 8.2-13.5 5.6-26.2 14.6-37.4 24.6-26.3 14.9-47.3 35-59.4 63.5-13.3 31.2-14.2 66.8-0.8 98.1 4.4 10.4 10.1 20.2 16.7 29.5 13 34 37.8 62.3 71.1 79.5l0.1 0.1c0.5 0.4 1 0.6 1.5 0.7 2.5 1.3 5 2.5 7.6 3.6 11.3 4.9 23 8.5 34.8 10.7-2.8 1.6-5.6 3.2-8.3 5-36.3 20.4-63.6 54.1-81.4 92.2-10.5-17.1-25.2-32-39.1-46.4-17.8-18.5-36.4-36.2-54.1-54.7 2.8-29.5 6.9-58.9 9.6-88.5 0.5-4.9-6.7-5.3-8.1-1.1-1.1 3.1-2.2 6.1-3.2 9.2-0.1 0.1-0.1 0.3-0.1 0.4-1.3-4.4-8.7-4.2-8.1 0.8 2.6 22.1 1.6 44.1-3.2 65.8-3.8-1.6-7.6-3.4-11.2-5.3-11.5-11.4-23.3-22.6-35.5-33.3-3.7-3.3-9 1.5-6.6 5 0.1 0.6 0.3 1.3 0.7 1.9 9.7 13.7 22 24.8 36.2 32.9 3.7 3.7 7.4 7.4 11 11.2-16.8 7.7-33.8 15.3-50.5 23.3-4.8 2.3-0.6 9.4 4.2 7.2 1.3-0.6 2.7-1.3 4-1.9-0.6 0.5-1.2 1-1.7 1.5-1.5 0.4-2.9 1-4.1 2.1-1.5 1.5-1.7 4.4 0 5.9 0.3 0.3 0.6 0.5 0.9 0.8 1.8 1.5 4.1 1.6 5.9 0 0.5-0.5 1-0.9 1.5-1.4 1-0.4 1.7-1 2-1.8 13.5-12 28.8-22.9 46.3-27.9 0.8-0.2 1.4-0.6 1.8-1.1 17.1 17.5 34.4 35 50.2 53.7 8.5 10 16.6 20.3 24 31.1 3.3 4.8 6.4 9.6 9.4 14.6 3.7 6.1 9.5 13.6 7.5 21-0.1 0.2-0.1 0.4-0.1 0.7-0.6 1.9-1.3 3.7-1.9 5.6-10.8 34-15.6 69.8-18.1 105.3-2.2 32.2-2.8 64.6-0.6 96.8 0.9 13.4 2.1 26.9 5 40.1 1.5 7 3.5 16.8 9.5 21.5 0.2 0.2 0.5 0.4 0.8 0.5 0 1.1 0.5 2.3 1.2 3.1 19 21.3 46.2 31.2 73.3 37.4 32.1 7.4 65.3 12 98.3 11.8 47.7-0.3 99.9-11.7 140-39.6 16.3-7.8 31.9-17.9 41.4-33.6 4.7-7.2 4.8-16.9 4.1-25.9 1.8-7.3 2.9-14.9 3.1-23 0.9-26.1-3.5-52.8-8.8-78.3-9.5-45.8-28.9-88.9-55-127.5-9.3-17.2-20-33.6-32.2-48.7 0.2-0.3 0.4-0.7 0.4-1.2 2.6-12.9 11.1-23.1 19.1-33.3 8-10.2 16.3-20.2 24.9-29.9 13.1-14.9 26.8-29.2 41.1-43v0.6c0.1 3.5 3.8 4.7 6.2 3.6 0.9 1.2 2.4 2 4.2 1.6 21.6-4.7 43.4-4.3 64.8 1.2 5.2 1.3 7.4-6.7 2.2-8-22.6-5.8-45.8-6.3-68.6-1.3v-0.1c28.9-8.7 59.2-9.9 88.8-3.3 5.5 1.2 7.7-6.8 2.5-8zM700.3 829.3c-8.1 11.4-18.3 21.2-29.8 29.5-4 1.9-8 3.7-12 5.4-20.7 8.8-42.1 17.2-64 22.7-48.7 12.3-99.2 9.3-147-5.2-27.4-8.3-53.5-20.1-78.7-33.6-0.8-5.9-3.4-12.8-4.3-16.2-1.5-5.8-3-11.6-4.3-17.4-0.1-0.6-0.4-1.5-0.6-2.6-0.3-2.6-0.5-5.2-0.8-7.8 0-0.4-0.1-0.9-0.1-1.3 0.2-0.8 0.1-1.5-0.2-2.2-2.3-28.5-2-57.2 0.8-85.6 6.2-64.8 24.8-132.1 57.1-188.9 11.6-20.4 26.5-39.9 46-52.9 4-2.2 8.1-4.2 12.3-6 1.8 0.9 4.2 0.9 5.8-1.2 0.4-0.6 0.9-1.2 1.4-1.7 0.3-0.1 0.5-0.2 0.8-0.3 10.7 0.8 21.4 0.4 31.9-1.1 41 13.2 76.4 48 103.7 78.8 11.9 13.4 22.9 27.6 33 42.5 26.2 49.2 39.8 104.6 49.2 159.3 2.6 15.3 5.1 30.6 7.4 45.9 0.7 4.9 1.9 11.2 2.5 17.5-2.1 7.8-5.3 15.5-10.1 22.4zM357.6 363c-0.3-0.7-0.7-1.4-1-2.1-2.4-6.9-4.4-14-5.8-21.4-9.9-53 8.9-110.9 50.5-145.8 47.2-39.7 117.8-47.9 173.3-21.6 1.6 0.8 3.1 0.5 4.3-0.3 9.8 6.6 19.5 14.1 28 22 12.4 11.3 22.5 24.9 30.2 39.7 13.7 61.2 4.1 128.5-39.4 176-6.9 7.5-14.4 14.2-22.4 20-16.6 8.9-34.4 15.7-52.8 20-0.6-1.1-1.7-1.8-3.3-1.9-62-3-125-33.8-161.6-84.6z m41.1-180.5c4.4-2.5 8.9-4.8 13.5-7.1-26.8 17.1-46.9 42.1-59 70.6 9.3-24.5 25.6-46.2 45.5-63.5z m253.1 93.4c5.8 30.1 3.2 63.5-10.8 91.1-6.4 12.6-15.1 23.7-25.3 33.5 27.1-37.2 37.6-84.1 34.8-130.5 0.5 1.9 0.9 3.9 1.3 5.9z m-313.7-23.6c5.5-16.7 14.1-30.9 25.4-42.9-6.2 8.8-11.5 18.3-15.7 28.2-11 25.9-14.7 56.1-10.9 84.5-6.7-22.6-6.4-46.7 1.2-69.8z m87.2 186.9c-13-9.8-25.6-20.6-36.9-32.6 5.5 4.4 11.1 8.4 16.9 12.2 21.2 14 44.7 24.2 69.2 30.4-2.5 0.5-3.6 2.9-3.3 5-6.8-1.1-13.6-2.6-20.4-4.7-9-2.7-17.5-6.1-25.5-10.3z m-142.9-57.4c-0.3 2.5-0.5 4.9-0.8 7.4-0.2-2.9-0.4-5.8-0.8-8.7 0.5 0.6 1 1 1.6 1.3zM362 553.6c-0.4-0.7-0.9-1.4-1.4-2.1 3.7 4.9 7.1 9.9 10.1 15.2 0.2 0.4 0.5 0.8 0.8 1-0.2 0.4-0.3 0.7-0.5 1.1-2.4-5.3-6.1-10.5-9-15.2z m47.5-35.2c1.2-1.6 2.5-3.1 3.8-4.6-17.3 27.7-29.2 60.1-38.6 88.5a519.6 519.6 0 0 0-20.8 87.2c4.7-60.4 17.3-122.8 55.6-171.1z m-29.6 344.8c17.9 8.9 36.3 16.8 55.2 23.1-19.7-4.6-39.2-11.1-55.2-23.1z m332.2-105.9c0.4 3.8 0.6 7.7 0.9 11.7-0.6-3.4-1.1-6.7-1.6-10.1-5.4-34.3-12-68.6-21.9-102 3.2 8.4 6.1 16.9 8.7 25.6 7 24.2 11.6 49.7 13.9 74.8zM617.8 521l4.5-7.5c-1.4 2.8-2.6 5.6-3.5 8.6-0.3-0.4-0.7-0.8-1-1.1z" fill="#384D9E" p-id="2622"></path><path d="M444.6 229.2l-4.5 6.3c-1.4-0.2-2.8 0.4-3.6 2.1-1.8 4-3.5 8-5.3 12-3.9 6.8-7.4 13.9-10.5 21.1-2.1 4.9 4 8.6 7.2 4.2 0.6-0.8 1.1-1.6 1.7-2.5 1.8 1.6 4.6 1.8 6-1 4.9-9.5 9.7-19 14.6-28.5 0.9-1.8 0.5-3.5-0.5-4.6 0.7-1.6 1.4-3.3 2.1-4.9 2.1-4.9-4-8.5-7.2-4.2zM526.2 335c-0.3 0.7-0.6 1.4-0.8 2.1-1.6 4.4 5.7 7.5 7.6 3.2 0.7-1.6 1.5-3.2 2.2-4.8 1.6 2.6 6.5 3 7.7-0.9 1.1-3.8 2.3-7.5 3.7-11.2 10.8-14.3 18.6-30.5 23-48.1v-0.2c0-0.1 0.1-0.1 0.1-0.2 2.2-2.7 0.3-6.2-2.1-7.1 1-4.4-5.1-7.9-7.4-3.4-3.8 7.4-7.5 14.7-11.1 22.2-10.2 12.9-18.7 27.1-25.2 42.4-1.3 2.6 0.2 5.1 2.3 6z" fill="#384D9E" p-id="2623"></path><path d="M467.9 561.3c-2 4.4-2.8 8.8-2.5 13.1-0.4 1.7-0.8 3.5-1 5.3-1.4 10.9 1.6 25.8 14.1 28.8 12.7 3.1 29.1-8.5 37.9-16.7 8.8-8.1 14.7-21.8 8.6-33.2-11.1-20.4-47.8-17.7-57.1 2.7z m14.2 39.4c-5.2-0.5-7.8-4.2-9-8.6 4 4.1 9.2 6.9 15.1 7.6-2 0.8-4.1 1.2-6.1 1z m28.5-25.3c-0.6 9.9-10.3 16.4-19.6 16.4-9.8 0-16.5-7.6-17.3-17 2.5-8.2 7.9-15.3 15-20.1 0.3-0.2 0.5-0.4 0.7-0.6 0.8-0.2 1.5-0.4 2.3-0.6 0.5 0.4 1.1 0.7 1.9 0.8 9.9 1.9 17.6 10.8 17 21.1z m7.6-0.5c0.3-6-1.3-12.1-4.7-17.1 2.1 1.7 3.8 3.9 4.8 6.6 1.3 3.8 1.1 7.3-0.1 10.5zM496.5 691.8c-19.7-3.5-38.9 18.7-29.1 37.3 0.8 1.6 1.8 3 2.9 4.3-0.8 1.4-0.8 3.2 0.7 4.7 12.1 12.6 35.5 11.3 45-4 9.8-15.9-1.4-39-19.5-42.3z m1.4 41.5c-7 4.1-16.1 0.9-21.1-5-5.5-6.6-4.3-15.1 0.7-21.2 0.9 2.1 3.2 3.5 5.6 1.8 16.5-11.3 31.7 14.4 14.8 24.4zM436.9 349.1c0-7.6 0.1-15.2 0.1-22.9 0-2.1-1.3-3.4-2.9-3.9 2.9-0.1 5.8-0.2 8.6-0.3 5.3-0.2 5.3-8.5 0-8.3-61.8 2.1-123.2 10.2-183.5 24.1-2.3 0.5-3.2 2.4-2.9 4.3-7.5-0.6-15-1.3-22.4-2.1-5.3-0.5-5.3 7.8 0 8.3 10 1 20 1.9 30.1 2.7-0.2 2.7 2 5.5 5.1 4.5 3.1-1.1 6.1-2.2 9.1-3.5 20.7 1.4 41.4 2.2 62.2 2.5 0.8 0.8 1.9 1.2 2.9 1.2 1.9-0.2 3.7-0.5 5.4-1.1h13c0.8 0.5 1.9 0.7 3.1 0.3 0.2-0.1 0.4-0.2 0.7-0.3 6.9 0 13.8-0.1 20.8-0.3 1 0.4 2.1 0.4 3-0.1 13.9-0.3 27.8-0.9 41.7-1.7 2 1.4 5.9 0.2 5.9-3.4zM281 341.6c0.1-0.1 0.2-0.1 0.3-0.2-0.1 0.1-0.2 0.2-0.3 0.2z m27.6 3.7c-0.9 0-1.9-0.1-2.8-0.1 1-0.3 2.1-0.7 3.1-1.1l-0.3 1.2z m12.6 0.5c0.8-0.7 1.7-1.4 2.5-2 0 0.8 0.3 1.5 0.7 2.1-1.1-0.1-2.2-0.1-3.2-0.1z m18.7 0.4c-2 0-4-0.1-6.1-0.1 2.4-0.9 4.7-1.9 6.8-3.1-0.2 1.1-0.5 2.1-0.7 3.2z m-3.8-10.1c0.8-1.6 1.6-3.1 2.3-4.7 1.8-0.3 3.5-0.5 5.3-0.8-2.2 2.2-4.8 4-7.6 5.5z m20.8-5.4l-4.5 11.1c-0.2 0.6-0.3 1.1-0.3 1.6-1.1 1.1-2.4 1.9-3.8 2.6 1.4-5.7 3.7-10.9 7-15.9 0.2-0.3 0.4-0.7 0.5-1l2.7-0.3c-0.7 0.4-1.3 1-1.6 1.9z m7.2-1.6c-0.4-0.4-0.8-0.8-1.3-1 0.9-0.1 1.7-0.2 2.6-0.3l-1.3 1.3z m12.1-0.3c-0.8 5.5-3.1 10.2-6.9 13.7 1-3.7 2.3-7.4 3.9-11 0.7-1.6 0.4-3.3-0.5-4.5 1.7-0.2 3.3-0.4 5-0.5-0.7 0.5-1.3 1.2-1.5 2.3z m1 17.4c1.4-1.6 2.6-3.3 3.7-5.2 0.6 1.7 1 3.4 1.3 5.1-1.7 0.1-3.3 0.1-5 0.1z m16.3-0.3c0.2-0.3 0.3-0.7 0.5-1 0.5 0.5 1.2 0.8 1.9 1-0.8-0.1-1.6-0.1-2.4 0z m4.4-0.2c0.3-0.1 0.6-0.2 0.9-0.4 1.7-1 3.1-2.2 4.5-3.4 0.1 1.2 0.2 2.3 0.3 3.5v0.1c-2 0.1-3.8 0.2-5.7 0.2z m4.5-17.4c-0.5 1.5-1.1 2.8-1.8 3.9v-3c-0.1-3.8-5.9-6-7.7-2.1-1.5 3.4-3 6.7-4.6 10.1-1.1-3.2-2.6-6.4-4.5-9.4-0.5-0.8-1.4-1.4-2.4-1.7 10.4-1 20.9-1.9 31.4-2.6-0.1 0.1-0.2 0.2-0.2 0.4l-2.1 4.8c-0.9-4-6.6-4.8-8.1-0.4z m9.8 16.9c1.8-4.1 3.6-8.2 5.4-12.2 1.2 1.9 1.8 4.1 1.4 6.6-0.3 2.1 1 4.5 2.9 5.2-3.2 0.1-6.4 0.2-9.7 0.4z m16.5-0.8c-1.4 0.1-2.8 0.2-4.2 0.2 0.2-0.1 0.4-0.2 0.6-0.4 1.3-0.9 2.4-1.9 3.5-2.9 0.1 1 0.1 2 0.1 3.1z m0.2-19.3c-0.6 2.4-1.5 4.5-2.7 6.4-1.2-3.3-3.5-6.2-6.8-8.5 3.9-0.2 7.9-0.4 11.8-0.6-1.1 0.5-1.9 1.4-2.3 2.7z" fill="#901D22" p-id="2624"></path><path d="M629.3 559.7c-3.4-12.8-8.3-25.2-14.2-37.1-2.3-6.1-4.7-12.1-7.3-18-5.7-13.1-13.3-25.6-24.6-34.1 5.8-15.9-3.8-36.8-22-37.3-2.7-0.1-3.9 1.7-3.9 3.7-2.8-0.7-5.9-0.3-8.7 1.4-1.7 1-2.3 2.8-1.9 4.7 4.4 23.3-30 24.1-44.7 24.2-19.1 0.1-38.1-2.4-56.6-7 4.1-1.6 8.2-3.2 12.2-4.7 4.2-1.6 3.8-8-1.1-8.1-9.5-0.2-20.6 0.1-27 8.3-0.7 0.9-1.3 1.8-1.8 2.8-1.8 1-3.3 2.2-4.4 4-5.4 8.9 4.9 15.7 11.4 19.4 15.2 8.7 32.3 14.2 49.8 16.3-0.1 0.3-0.1 0.5-0.1 0.8-14.8-1.5-29.4-5.2-43-11.2-7.7-3.4-24.1-9.6-26-18.8-2.2-10.8 13.2-18.3 20.9-21.8 4.9-2.2 0.6-9.3-4.2-7.2-13.9 6.3-34 21.8-21 38.5 6.1 7.8 17.2 12.6 26.1 16.5 10.1 4.5 20.8 7.9 31.6 10.1 21.8 4.3 44.5 3.9 66.1-1.5 6.9-1.7 14.3-4 21.3-7.2 1.2 2.3 2.2 4.8 3.2 7.1 0 0.1 0.1 0.2 0.1 0.3-0.7 2 0.5 4.2 2.3 5.1 2.5 5.5 4.9 11.1 7.2 16.7-0.5 1.8 0.3 3.5 1.8 4.4 0.8 2 1.5 4 2.3 6.1l-0.9 0.9c-2.9 3 0 7.7 3.6 7 3.3 10.2 5.9 20.6 7.2 31.1l-1.7 1.7c-2.5 2.7-0.7 6.5 2.5 7 0.7 13.6-0.9 27.1-6.1 40.4-0.8 2.1 0.6 4 2.4 4.8-0.8 1.7-1.7 3.5-2.7 5.1-1.2 2-0.4 4.5 1.5 5.7 13.7 9 31.4 3.6 41.2-8.5 5.7-1.1 9.9-4.5 11.7-10.5 5.6-19.1 2.4-42.2-2.5-61.1zM609.2 623c-0.5 0-1-0.1-1.5-0.1 2.3-1.9 4.6-3.6 7.1-5.3 2.5-1.6 2.2-5.5 0.4-7.1 2-2.3 4.1-4.5 6.1-6.8 0.5-0.6 0.8-1.2 1-1.8-0.2 2.2-0.6 4.3-1 6.4-1.1 5-3.3 10.3-6.4 14.9-2 0.1-3.9-0.1-5.7-0.2z m-17.9-1.2c0.3-1 0.5-2.1 0.7-3.1 2.4-0.7 4.7-1.4 6.9-2.3-0.4 0.9-0.4 2-0.1 3-1 0.9-2 1.8-2.9 2.7-1.5-0.1-3-0.2-4.6-0.3zM437.1 463.4c0.8-0.3 1.5-0.6 2.3-0.9-0.3 0.8-0.4 1.7-0.1 2.6 1.1 3.1 2.7 5.7 4.5 8.1-5.3-1.3-10.8-3.5-9.5-8.8 0.7-0.3 1.6-0.5 2.8-1z m118-18.7c0.3 0 0.5 0 0.8 0.1l-0.8 0.8v-0.9z m4 8.9c-0.1 0.6-0.3 1.1-0.5 1.5l-0.6 0.9c0.3-0.9 0.7-1.7 1.1-2.4z m19.3 50.5l-0.1 0.1v-0.1h0.1z m-1.6-8.3c2.4-3.7 4.2-7.6 5.1-11.4l2.4 3.3c0.6 0.8 1.2 1.7 1.8 2.6-3 2-6.1 3.9-9.3 5.5z m4.5 20.9c2.9-6.4 6.4-12.4 10.4-18.1 2.3 3.5 4.5 7.1 6.6 10.7 0.1 0.1 0.1 0.2 0.2 0.3-5.3 4-10.8 7.2-16.7 9.6-0.1-0.8-0.3-1.7-0.5-2.5z m19.3 3.4c-0.6 0.4-1.2 0.7-1.8 1.1 1.3-1.4 2.7-2.8 4-4.1 0.5 0.9 1 1.9 1.5 2.8-1-0.6-2.3-0.6-3.7 0.2z m16.1 35.3c1.9 6.8 3.6 13.8 4.7 20.9-1.4-0.7-3.2-0.8-4.7 0.6-4.7 4.3-9.8 7.7-15.4 10.2 3.5-4.5 7.1-9.1 10.6-13.6 2.8-3.5-0.6-8.9-5-6.5-2.7 1.5-5.4 2.7-8.2 3.9 1.3-1.3 2.7-2.6 4-3.9 4.9-3.5 9.6-7.4 14-11.6z m-22.8 44v-0.9c0.4-0.1 0.8-0.2 1.3-0.3-0.4 0.4-0.9 0.8-1.3 1.2z m1.9-18.6c-0.9 1.2-1.8 2.4-2.8 3.6-0.1-0.9-0.2-1.7-0.3-2.6 1.1-0.3 2.1-0.6 3.1-1z m12-29.5c1.4-1.6 2.8-3.1 4.2-4.6 1.1-1.2 1.4-2.4 1.2-3.6 0.3 1 0.6 2 0.9 2.9-2.2 1.8-4.3 3.5-6.3 5.3z m-18 9.9v-0.1c-0.1-0.5-0.2-1-0.2-1.5 0.6-0.2 1.2-0.5 1.8-0.7-0.6 0.8-1.1 1.5-1.6 2.3zM617 597c2-1.5 3.9-3 5.7-4.7 0 2.7-0.1 5.5-0.4 8.2-0.1-2.4-2.7-4.3-5.3-3.5z m-4-54.4c-0.9-2.4-4.2-4-6.9-1.8-2 1.7-4.1 3.2-6.2 4.5 1.6-2 3.3-3.9 4.9-5.9 3.4-4-2.1-9.8-5.9-5.9-1.6 1.7-3.4 3.1-5.2 4.2 3.1-4 6.8-7.5 11-10.5 1.1-0.8 1.7-1.9 1.8-3 0.8 1.5 1.5 3 2.2 4.5 1.6 4.8 3 9.4 4.3 13.9z m-50.6-79c3.4-3.5 5.6-8 5.6-12.5 0.9 3.1 1 6.5 0.3 9.5-0.3 1.6-0.9 3.1-1.6 4.6-0.7-0.1-1.5-0.1-2.3-0.1-2.6 0.1-4.8 2.6-4 5.2 0.2 0.8 0.5 1.6 0.7 2.3-2.7 2.6-5.8 4.7-9 6.5-1.2 0.7-2.5 1.3-3.8 1.9-0.8 0-1.6 0-2.4 0.1 1-0.9 1.9-1.9 2.8-3 2.2-2.6 3.9-5.4 5.3-8.4 3.2-1.7 6-3.7 8.4-6.1z m-29.7 14.7c2.1-0.7 4.3-1.4 6.5-2.1-3.9 3.3-8.5 5.7-13.3 7.2-8.5 2.7-17.8 2.8-27 2 11.4-1.3 22.8-3.6 33.8-7.1z m41 6.4c-0.1 0.3-0.2 0.5-0.3 0.8 0-0.1-0.1-0.3-0.1-0.4l0.4-0.4z m-3.1 22.5c0.1 0.5 0.2 1 0.4 1.5-0.2-0.5-0.4-0.9-0.6-1.4 0 0 0.1 0 0.2-0.1z m-23-44c-0.1 0.2-0.1 0.4-0.2 0.5-0.3 0.1-0.6 0.3-0.9 0.4 0.4-0.2 0.8-0.5 1.1-0.9z m-37.9 12.2c-5.9 1.1-12 1.8-18 2.2-10.5 0.6-21.1 0.2-31.6-1.2-3.1-1.6-5.9-3.6-8.3-6.1 18.9 4 38.5 6.1 57.9 5.1z m56.6 15.3c0.4 1.4 0.7 2.9 1.1 4.3-0.6 0.7-1.2 1.4-1.8 2-0.7-1.5-1.5-3-2.3-4.5 1.1-0.6 2.1-1.2 3-1.8z m20.2 143.8c0.8-1.5 1.5-3 2.1-4.6 0.2 0 0.5 0 0.7 0.1-0.7 3.6 3.9 7.3 6.8 3.9 0.9-1 1.8-2 2.8-3 2.8 0.2 5.5 0.4 8.3 0.6-5.9 4.5-13.1 6.4-20.7 3z" fill="#901D22" p-id="2625"></path></svg>